<?xml version="1.0" standalone="no"?>
<!DOCTYPE svg PUBLIC "-//W3C//DTD SVG 20010904//EN"
 "http://www.w3.org/TR/2001/REC-SVG-20010904/DTD/svg10.dtd">
<svg version="1.0" xmlns="http://www.w3.org/2000/svg"
 width="438.000000pt" height="438.000000pt" viewBox="0 0 438.000000 438.000000"
 preserveAspectRatio="xMidYMid meet">
<metadata>
Created by potrace 1.14, written by Peter Selinger 2001-2017
</metadata>
<g transform="translate(0.000000,438.000000) scale(0.100000,-0.100000)"
fill="#000000" stroke="none">
<path d="M245 4370 c11 -5 36 -9 55 -9 19 0 44 4 55 9 14 6 -4 9 -55 9 -51 0
-69 -3 -55 -9z"/>
<path d="M421 4339 c-75 -67 -258 -187 -379 -248 l-42 -21 0 -125 0 -124 49
23 c103 47 476 295 689 458 l103 78 -188 0 -188 -1 -44 -40z"/>
<path d="M2160 3122 c-40 -30 -188 -101 -249 -118 -31 -9 -71 -27 -88 -41 -43
-32 -99 -51 -175 -59 -41 -4 -75 -14 -98 -30 -141 -94 -653 -175 -775 -122
-22 10 -107 27 -190 37 -82 11 -181 27 -220 36 -38 8 -136 18 -217 22 l-148 6
0 -56 0 -57 109 0 c60 0 152 -7 203 -15 344 -54 490 -68 673 -62 205 6 279 20
500 94 180 59 395 151 612 261 163 82 203 112 151 112 -13 0 -32 3 -43 6 -12
3 -31 -3 -45 -14z"/>
<path d="M3057 3045 c-43 -22 -90 -64 -106 -94 -29 -52 -82 -187 -87 -222 -5
-29 -16 -42 -65 -75 -72 -47 -114 -119 -114 -195 0 -29 -6 -54 -17 -65 -19
-22 -68 -127 -93 -199 -12 -37 -15 -65 -10 -105 4 -30 9 -104 10 -165 6 -180
14 -242 35 -277 11 -18 20 -43 20 -56 0 -12 11 -32 25 -44 31 -27 32 -45 3
-54 -13 -3 -52 -34 -88 -69 -36 -34 -74 -67 -85 -73 -24 -12 -60 -120 -51
-149 12 -36 274 -223 313 -223 8 0 13 -5 11 -12 -2 -6 15 -29 38 -50 l42 -39
84 16 c46 9 107 18 136 20 65 6 73 10 63 36 -4 12 -5 33 -3 48 3 25 10 29 97
50 116 30 165 24 165 -18 0 -15 6 -35 13 -45 12 -17 17 -17 43 -5 36 18 40 39
21 103 -9 28 -41 141 -72 251 -31 110 -63 222 -71 249 -16 56 -18 80 -5 72 5
-4 11 0 14 6 5 18 43 -58 51 -104 4 -21 18 -61 31 -91 14 -30 34 -87 44 -128
11 -41 31 -112 45 -157 14 -46 25 -87 24 -90 -1 -4 9 -24 22 -44 18 -27 32
-38 50 -38 37 1 137 24 205 49 32 11 67 21 76 21 9 0 19 7 23 15 3 8 16 15 28
15 42 0 97 20 102 38 3 9 -5 51 -18 92 -19 64 -26 75 -47 78 -73 8 -93 16
-134 54 -66 61 -68 93 -16 253 l41 127 -16 112 c-10 71 -14 139 -11 187 5 63
2 90 -17 152 -23 75 -57 143 -101 202 -12 17 -26 41 -30 54 -9 30 -45 61 -62
54 -7 -3 -13 0 -13 6 0 6 7 11 15 11 19 0 19 -1 -5 71 -37 109 -106 198 -174
224 -38 15 -44 22 -61 72 -15 43 -29 63 -60 86 -97 71 -195 95 -258 62z m-60
-478 c4 -8 22 -13 38 -13 29 1 30 0 33 -53 3 -46 1 -53 -13 -47 -9 3 -21 6
-27 6 -6 0 -8 9 -5 20 3 11 2 22 -3 25 -4 3 -10 -9 -12 -26 -4 -24 2 -38 25
-65 17 -19 39 -34 48 -34 24 0 34 -19 14 -26 -28 -11 -59 12 -94 71 -35 58
-62 140 -54 162 6 14 37 1 50 -20z m-200 -99 c-3 -7 -5 -2 -5 12 0 14 2 19 5
13 2 -7 2 -19 0 -25z m293 -38 c13 -8 13 -10 -2 -10 -9 0 -20 5 -23 10 -8 13
5 13 25 0z m-260 -32 c12 -13 18 -29 14 -40 -3 -12 4 -23 24 -35 16 -10 27
-23 25 -29 -2 -6 6 -14 17 -17 18 -5 20 -8 9 -26 -11 -17 -10 -23 6 -43 18
-20 18 -21 1 -8 -35 28 -126 173 -126 203 0 22 5 22 30 -5z"/>
<path d="M4282 2468 c-5 -7 -12 -22 -14 -33 -3 -18 3 -20 55 -23 49 -3 57 -1
57 15 0 10 -15 25 -36 36 -42 20 -48 21 -62 5z"/>
<path d="M1275 1234 c-38 -20 -83 -48 -100 -64 -16 -15 -61 -48 -100 -73 -38
-25 -84 -59 -101 -74 -68 -60 -92 -77 -161 -109 -83 -39 -103 -41 -128 -14
-21 23 -63 27 -71 7 -3 -8 4 -38 16 -67 17 -43 19 -59 10 -83 -20 -60 -3 -136
35 -151 9 -3 13 -10 10 -16 -3 -5 10 -17 29 -26 32 -16 38 -16 84 0 50 16 80
13 94 -8 4 -6 8 -46 8 -89 0 -91 22 -145 70 -174 37 -21 38 -48 5 -93 -39 -53
-34 -70 23 -70 54 0 122 17 122 30 0 5 -6 7 -14 4 -35 -13 -24 36 41 181 45
102 50 114 63 147 14 41 27 34 34 -20 5 -39 2 -56 -19 -97 -14 -27 -30 -52
-35 -55 -5 -3 -11 -17 -12 -30 -3 -24 -1 -25 49 -24 69 2 83 8 83 38 0 14 11
46 25 72 21 39 25 61 25 128 1 55 5 87 15 100 8 11 15 29 15 41 0 31 28 65 54
65 13 0 41 -12 62 -26 47 -33 119 -64 144 -64 31 0 43 -36 36 -110 -6 -53 -4
-69 8 -79 11 -9 20 -10 35 -2 11 6 24 10 28 9 4 -1 25 1 46 5 43 9 50 27 10
24 -26 -2 -28 0 -25 35 2 20 -1 45 -6 55 -6 10 -12 38 -15 63 -3 25 -17 81
-31 125 -13 44 -32 112 -40 150 -19 89 -58 195 -84 232 -54 75 -144 133 -216
139 -44 4 -61 -1 -121 -32z m-232 -801 c-3 -32 -9 -62 -14 -67 -10 -11 -39 11
-39 31 0 20 39 93 49 93 6 0 7 -26 4 -57z"/>
<path d="M1800 420 c0 -5 5 -10 11 -10 5 0 7 5 4 10 -3 6 -8 10 -11 10 -2 0
-4 -4 -4 -10z"/>
<path d="M1837 398 c-3 -10 7 -12 39 -9 24 1 44 7 44 12 0 14 -77 11 -83 -3z"/>
<path d="M1733 376 c13 -10 15 -15 5 -19 -7 -2 -10 -8 -6 -12 10 -11 48 5 48
20 0 7 6 16 13 18 6 3 -8 6 -33 6 -40 0 -43 -1 -27 -13z"/>
<path d="M1650 340 c0 -11 -4 -20 -10 -20 -5 0 -10 7 -10 16 0 12 -6 15 -22
10 -13 -3 -38 -6 -56 -6 -21 0 -31 -4 -26 -11 3 -6 23 -9 44 -7 21 2 36 0 34
-4 -3 -5 -19 -8 -35 -8 -18 0 -28 -4 -24 -10 6 -9 50 -7 138 6 45 7 49 24 6
24 -18 0 -28 4 -24 10 4 6 10 8 15 5 5 -3 11 -1 15 5 4 6 -5 10 -19 10 -19 0
-26 -5 -26 -20z"/>
<path d="M1360 250 c0 -5 4 -10 9 -10 6 0 13 5 16 10 3 6 -1 10 -9 10 -9 0
-16 -4 -16 -10z"/>
<path d="M1562 183 c3 -14 11 -17 38 -15 40 4 44 7 35 21 -3 6 -22 11 -41 11
-28 0 -35 -4 -32 -17z"/>
<path d="M1670 185 c0 -8 7 -15 15 -15 8 0 15 4 15 9 0 5 -7 11 -15 15 -9 3
-15 0 -15 -9z"/>
</g>
</svg>
